<?xml version="1.0" encoding="UTF-8"?>
<svg xmlns="http://www.w3.org/2000/svg" xmlns:xlink="http://www.w3.org/1999/xlink" width="25px" height="25px" viewBox="0 0 25 25" version="1.1">
<g id="surface1">
<path style=" stroke:none;fill-rule:nonzero;fill:rgb(100%,100%,100%);fill-opacity:1;" d="M 16 5.5 L 18.5 5.5 C 18.777344 5.5 19 5.277344 19 5 L 19 1.632812 C 19 1.371094 18.796875 1.152344 18.539062 1.132812 C 17.742188 1.078125 16.1875 1 15.070312 1 C 12 1 10 2.839844 10 6.183594 L 10 9.5 L 6.5 9.5 C 6.222656 9.5 6 9.722656 6 10 L 6 13.5 C 6 13.777344 6.222656 14 6.5 14 L 10 14 L 10 23.5 C 10 23.777344 10.222656 24 10.5 24 L 14 24 C 14.277344 24 14.5 23.777344 14.5 23.5 L 14.5 14 L 18.109375 14 C 18.367188 14 18.578125 13.808594 18.609375 13.554688 L 18.996094 10.054688 C 19.03125 9.757812 18.796875 9.5 18.5 9.5 L 14.5 9.5 L 14.5 7 C 14.5 6.171875 15.171875 5.5 16 5.5 Z M 16 5.5 "/>
</g>
</svg>
