<?xml version="1.0" encoding="UTF-8"?>
<svg xmlns="http://www.w3.org/2000/svg" xmlns:xlink="http://www.w3.org/1999/xlink" width="25px" height="25px" viewBox="0 0 25 25" version="1.1">
<g id="surface1">
<path style=" stroke:none;fill-rule:nonzero;fill:rgb(100%,100%,100%);fill-opacity:1;" d="M 25.03125 5.21875 C 24.105469 5.628906 23.117188 5.90625 22.074219 6.03125 C 23.136719 5.394531 23.957031 4.382812 24.339844 3.183594 C 23.34375 3.773438 22.242188 4.199219 21.070312 4.429688 C 20.132812 3.429688 18.800781 2.808594 17.320312 2.808594 C 14.480469 2.808594 12.179688 5.109375 12.179688 7.949219 C 12.179688 8.351562 12.222656 8.746094 12.3125 9.121094 C 8.039062 8.90625 4.253906 6.859375 1.714844 3.746094 C 1.273438 4.507812 1.019531 5.394531 1.019531 6.335938 C 1.019531 8.117188 1.925781 9.691406 3.304688 10.617188 C 2.460938 10.589844 1.667969 10.355469 0.976562 9.96875 C 0.976562 9.992188 0.976562 10.011719 0.976562 10.035156 C 0.976562 12.527344 2.75 14.601562 5.097656 15.078125 C 4.667969 15.195312 4.214844 15.257812 3.746094 15.257812 C 3.414062 15.257812 3.089844 15.226562 2.777344 15.164062 C 3.433594 17.207031 5.332031 18.695312 7.582031 18.738281 C 5.820312 20.117188 3.605469 20.9375 1.195312 20.9375 C 0.777344 20.9375 0.371094 20.910156 -0.03125 20.863281 C 2.242188 22.324219 4.945312 23.175781 7.851562 23.175781 C 17.308594 23.175781 22.480469 15.339844 22.480469 8.546875 C 22.480469 8.324219 22.472656 8.097656 22.46875 7.878906 C 23.46875 7.15625 24.34375 6.25 25.03125 5.21875 Z M 25.03125 5.21875 "/>
</g>
</svg>
