<svg width="24" height="24" viewBox="0 0 24 24" fill="none" xmlns="http://www.w3.org/2000/svg">
<g opacity="0.54">
<mask id="mask0_1_1808" style="mask-type:alpha" maskUnits="userSpaceOnUse" x="1" y="2" width="23" height="20">
<path d="M9 2C7.93913 2 6.92172 2.42143 6.17157 3.17157C5.42143 3.92172 5 4.93913 5 6C5 7.06087 5.42143 8.07828 6.17157 8.82843C6.92172 9.57857 7.93913 10 9 10C10.0609 10 11.0783 9.57857 11.8284 8.82843C12.5786 8.07828 13 7.06087 13 6C13 4.93913 12.5786 3.92172 11.8284 3.17157C11.0783 2.42143 10.0609 2 9 2ZM9 12C6.33 12 1 13.33 1 16V18H12.08C12.03 17.67 12 17.34 12 17C12 15.5 12.5 14 13.41 12.8C11.88 12.28 10.18 12 9 12ZM18 12C17.87 12 17.76 12.09 17.74 12.21L17.55 13.53C17.25 13.66 16.96 13.82 16.7 14L15.46 13.5C15.35 13.5 15.22 13.5 15.15 13.63L14.15 15.36C14.09 15.47 14.11 15.6 14.21 15.68L15.27 16.5C15.25 16.67 15.24 16.83 15.24 17C15.24 17.17 15.25 17.33 15.27 17.5L14.21 18.32C14.12 18.4 14.09 18.53 14.15 18.64L15.15 20.37C15.21 20.5 15.34 20.5 15.46 20.5L16.7 20C16.96 20.18 17.24 20.35 17.55 20.47L17.74 21.79C17.76 21.91 17.86 22 18 22H20C20.11 22 20.22 21.91 20.24 21.79L20.43 20.47C20.73 20.34 21 20.18 21.27 20L22.5 20.5C22.63 20.5 22.76 20.5 22.83 20.37L23.83 18.64C23.89 18.53 23.86 18.4 23.77 18.32L22.7 17.5C22.72 17.33 22.74 17.17 22.74 17C22.74 16.83 22.73 16.67 22.7 16.5L23.76 15.68C23.85 15.6 23.88 15.47 23.82 15.36L22.82 13.63C22.76 13.5 22.63 13.5 22.5 13.5L21.27 14C21 13.82 20.73 13.65 20.42 13.53L20.23 12.21C20.22 12.09 20.11 12 20 12H18ZM19 15.5C19.3978 15.5 19.7794 15.658 20.0607 15.9393C20.342 16.2206 20.5 16.6022 20.5 17C20.5 17.3978 20.342 17.7794 20.0607 18.0607C19.7794 18.342 19.3978 18.5 19 18.5C18.16 18.5 17.5 17.83 17.5 17C17.5 16.6022 17.658 16.2206 17.9393 15.9393C18.2206 15.658 18.6022 15.5 19 15.5Z" fill="#5F5F5F"/>
</mask>
<g mask="url(#mask0_1_1808)">
<rect width="24" height="24" fill="#5F5F5F"/>
</g>
</g>
</svg>
