<svg width="24" height="24" viewBox="0 0 24 24" fill="none" xmlns="http://www.w3.org/2000/svg">
<g opacity="0.54">
<mask id="mask0_1_1789" style="mask-type:alpha" maskUnits="userSpaceOnUse" x="2" y="2" width="20" height="20">
<path d="M18 18C16.89 18 16 18.89 16 20C16 20.5304 16.2107 21.0391 16.5858 21.4142C16.9609 21.7893 17.4696 22 18 22C18.5304 22 19.0391 21.7893 19.4142 21.4142C19.7893 21.0391 20 20.5304 20 20C20 18.89 19.1 18 18 18ZM2 2V4H4L7.6 11.59L6.24 14.04C6.09 14.32 6 14.65 6 15C6 15.5304 6.21071 16.0391 6.58579 16.4142C6.96086 16.7893 7.46957 17 8 17H20V15H8.42C8.3537 15 8.29011 14.9737 8.24322 14.9268C8.19634 14.8799 8.17 14.8163 8.17 14.75C8.17 14.7 8.18 14.66 8.2 14.63L9.1 13H16.55C17.3 13 17.96 12.58 18.3 11.97L21.88 5.5C21.95 5.34 22 5.17 22 5C22 4.73478 21.8946 4.48043 21.7071 4.29289C21.5196 4.10536 21.2652 4 21 4H6.21L5.27 2H2ZM8 18C6.89 18 6 18.89 6 20C6 20.5304 6.21071 21.0391 6.58579 21.4142C6.96086 21.7893 7.46957 22 8 22C8.53043 22 9.03914 21.7893 9.41421 21.4142C9.78929 21.0391 10 20.5304 10 20C10 18.89 9.1 18 8 18Z" fill="#5F5F5F"/>
</mask>
<g mask="url(#mask0_1_1789)">
<rect width="24" height="24" fill="#5F5F5F"/>
</g>
</g>
</svg>
