<svg width="32" height="32" viewBox="0 0 32 32" fill="none" xmlns="http://www.w3.org/2000/svg">
<g opacity="0.4">
<mask id="mask0_1_2441" style="mask-type:alpha" maskUnits="userSpaceOnUse" x="8" y="6" width="16" height="21">
<path d="M16 22C16.5304 22 17.0391 21.7893 17.4142 21.4142C17.7893 21.0391 18 20.5304 18 20C18 18.89 17.1 18 16 18C15.4696 18 14.9609 18.2107 14.5858 18.5858C14.2107 18.9609 14 19.4696 14 20C14 20.5304 14.2107 21.0391 14.5858 21.4142C14.9609 21.7893 15.4696 22 16 22ZM22 13C22.5304 13 23.0391 13.2107 23.4142 13.5858C23.7893 13.9609 24 14.4696 24 15V25C24 25.5304 23.7893 26.0391 23.4142 26.4142C23.0391 26.7893 22.5304 27 22 27H10C9.46957 27 8.96086 26.7893 8.58579 26.4142C8.21071 26.0391 8 25.5304 8 25V15C8 13.89 8.9 13 10 13H11V11C11 9.67392 11.5268 8.40215 12.4645 7.46447C13.4021 6.52678 14.6739 6 16 6C16.6566 6 17.3068 6.12933 17.9134 6.3806C18.52 6.63188 19.0712 7.00017 19.5355 7.46447C19.9998 7.92876 20.3681 8.47995 20.6194 9.08658C20.8707 9.69321 21 10.3434 21 11V13H22ZM16 8C15.2044 8 14.4413 8.31607 13.8787 8.87868C13.3161 9.44129 13 10.2044 13 11V13H19V11C19 10.2044 18.6839 9.44129 18.1213 8.87868C17.5587 8.31607 16.7956 8 16 8Z" fill="#5F5F5F"/>
</mask>
<g mask="url(#mask0_1_2441)">
<rect width="32" height="32" fill="#5F5F5F"/>
</g>
</g>
</svg>
