<svg width="32" height="32" viewBox="0 0 32 32" fill="none" xmlns="http://www.w3.org/2000/svg">
<g clip-path="url(#clip0_1_2413)">
<mask id="mask0_1_2413" style="mask-type:alpha" maskUnits="userSpaceOnUse" x="6" y="8" width="20" height="16">
<path d="M24 12L16 17L8 12V10L16 15L24 10V12ZM24 8H8C6.89 8 6 8.89 6 10V22C6 22.5304 6.21071 23.0391 6.58579 23.4142C6.96086 23.7893 7.46957 24 8 24H24C24.5304 24 25.0391 23.7893 25.4142 23.4142C25.7893 23.0391 26 22.5304 26 22V10C26 8.89 25.1 8 24 8Z" fill="#5F5F5F"/>
</mask>
<g mask="url(#mask0_1_2413)">
<rect width="32" height="32" fill="#828282"/>
</g>
</g>
<defs>
<clipPath id="clip0_1_2413">
<rect width="32" height="32" fill="white"/>
</clipPath>
</defs>
</svg>
